<?xml version="1.0" encoding="utf-8" standalone="no"?>
<!DOCTYPE svg PUBLIC "-//W3C//DTD SVG 1.1//EN"
  "http://www.w3.org/Graphics/SVG/1.1/DTD/svg11.dtd">
<svg xmlns:xlink="http://www.w3.org/1999/xlink" width="227.646187pt" height="130.106297pt" viewBox="0 0 227.646187 130.106297" xmlns="http://www.w3.org/2000/svg" version="1.1">
 <metadata>
  <rdf:RDF xmlns:dc="http://purl.org/dc/elements/1.1/" xmlns:cc="http://creativecommons.org/ns#" xmlns:rdf="http://www.w3.org/1999/02/22-rdf-syntax-ns#">
   <cc:Work>
    <dc:type rdf:resource="http://purl.org/dc/dcmitype/StillImage"/>
    <dc:date>2026-05-22T20:25:05.831276</dc:date>
    <dc:format>image/svg+xml</dc:format>
    <dc:creator>
     <cc:Agent>
      <dc:title>Matplotlib v3.9.4, https://matplotlib.org/</dc:title>
     </cc:Agent>
    </dc:creator>
   </cc:Work>
  </rdf:RDF>
 </metadata>
 <defs>
  <style type="text/css">*{stroke-linejoin: round; stroke-linecap: butt}</style>
 </defs>
 <g id="figure_1">
  <g id="patch_1">
   <path d="M 0 130.106297 
L 227.646187 130.106297 
L 227.646187 0 
L 0 0 
z
" style="fill: #ffffff"/>
  </g>
  <g id="axes_1">
   <g id="patch_2">
    <path d="M 28.656188 114.552 
L 227.646187 114.552 
L 227.646187 0 
L 28.656188 0 
z
" style="fill: #ffffff"/>
   </g>
   <g id="matplotlib.axis_1">
    <g id="xtick_1">
     <g id="line2d_1">
      <defs>
       <path id="mee404d8168" d="M 0 0 
L 0 4.5 
" style="stroke: #000000; stroke-width: 1.4"/>
      </defs>
      <g>
       <use xlink:href="#mee404d8168" x="80.772616" y="114.552" style="stroke: #000000; stroke-width: 1.4"/>
      </g>
     </g>
     <g id="text_1">
      <!-- Apply -->
      <g transform="translate(70.397616 128.315312) scale(0.083 -0.083)">
       <defs>
        <path id="TimesNewRomanPSMT-41" d="M 2928 1419 
L 1288 1419 
L 1000 750 
Q 894 503 894 381 
Q 894 284 986 211 
Q 1078 138 1384 116 
L 1384 0 
L 50 0 
L 50 116 
Q 316 163 394 238 
Q 553 388 747 847 
L 2238 4334 
L 2347 4334 
L 3822 809 
Q 4000 384 4145 257 
Q 4291 131 4550 116 
L 4550 0 
L 2878 0 
L 2878 116 
Q 3131 128 3220 200 
Q 3309 272 3309 375 
Q 3309 513 3184 809 
L 2928 1419 
z
M 2841 1650 
L 2122 3363 
L 1384 1650 
L 2841 1650 
z
" transform="scale(0.015625)"/>
        <path id="TimesNewRomanPSMT-70" d="M -6 2578 
L 875 2934 
L 994 2934 
L 994 2266 
Q 1216 2644 1439 2795 
Q 1663 2947 1909 2947 
Q 2341 2947 2628 2609 
Q 2981 2197 2981 1534 
Q 2981 794 2556 309 
Q 2206 -88 1675 -88 
Q 1444 -88 1275 -22 
Q 1150 25 994 166 
L 994 -706 
Q 994 -1000 1030 -1079 
Q 1066 -1159 1155 -1206 
Q 1244 -1253 1478 -1253 
L 1478 -1369 
L -22 -1369 
L -22 -1253 
L 56 -1253 
Q 228 -1256 350 -1188 
Q 409 -1153 442 -1076 
Q 475 -1000 475 -688 
L 475 2019 
Q 475 2297 450 2372 
Q 425 2447 370 2484 
Q 316 2522 222 2522 
Q 147 2522 31 2478 
L -6 2578 
z
M 994 2081 
L 994 1013 
Q 994 666 1022 556 
Q 1066 375 1236 237 
Q 1406 100 1666 100 
Q 1978 100 2172 344 
Q 2425 663 2425 1241 
Q 2425 1897 2138 2250 
Q 1938 2494 1663 2494 
Q 1513 2494 1366 2419 
Q 1253 2363 994 2081 
z
" transform="scale(0.015625)"/>
        <path id="TimesNewRomanPSMT-6c" d="M 1184 4444 
L 1184 647 
Q 1184 378 1223 290 
Q 1263 203 1344 158 
Q 1425 113 1647 113 
L 1647 0 
L 244 0 
L 244 113 
Q 441 113 512 153 
Q 584 194 625 287 
Q 666 381 666 647 
L 666 3247 
Q 666 3731 644 3842 
Q 622 3953 573 3993 
Q 525 4034 450 4034 
Q 369 4034 244 3984 
L 191 4094 
L 1044 4444 
L 1184 4444 
z
" transform="scale(0.015625)"/>
        <path id="TimesNewRomanPSMT-79" d="M 38 2863 
L 1372 2863 
L 1372 2747 
L 1306 2747 
Q 1166 2747 1095 2686 
Q 1025 2625 1025 2534 
Q 1025 2413 1128 2197 
L 1825 753 
L 2466 2334 
Q 2519 2463 2519 2588 
Q 2519 2644 2497 2672 
Q 2472 2706 2419 2726 
Q 2366 2747 2231 2747 
L 2231 2863 
L 3163 2863 
L 3163 2747 
Q 3047 2734 2984 2696 
Q 2922 2659 2847 2556 
Q 2819 2513 2741 2316 
L 1575 -541 
Q 1406 -956 1132 -1168 
Q 859 -1381 606 -1381 
Q 422 -1381 303 -1275 
Q 184 -1169 184 -1031 
Q 184 -900 270 -820 
Q 356 -741 506 -741 
Q 609 -741 788 -809 
Q 913 -856 944 -856 
Q 1038 -856 1148 -759 
Q 1259 -663 1372 -384 
L 1575 113 
L 547 2272 
Q 500 2369 397 2513 
Q 319 2622 269 2659 
Q 197 2709 38 2747 
L 38 2863 
z
" transform="scale(0.015625)"/>
       </defs>
       <use xlink:href="#TimesNewRomanPSMT-41"/>
       <use xlink:href="#TimesNewRomanPSMT-70" x="72.216797"/>
       <use xlink:href="#TimesNewRomanPSMT-70" x="122.216797"/>
       <use xlink:href="#TimesNewRomanPSMT-6c" x="172.216797"/>
       <use xlink:href="#TimesNewRomanPSMT-79" x="200"/>
      </g>
     </g>
    </g>
    <g id="xtick_2">
     <g id="line2d_2">
      <g>
       <use xlink:href="#mee404d8168" x="175.529759" y="114.552" style="stroke: #000000; stroke-width: 1.4"/>
      </g>
     </g>
     <g id="text_2">
      <!-- Validate -->
      <g transform="translate(161.93397 128.315312) scale(0.083 -0.083)">
       <defs>
        <path id="TimesNewRomanPSMT-56" d="M 4544 4238 
L 4544 4122 
Q 4319 4081 4203 3978 
Q 4038 3825 3909 3509 
L 2431 -97 
L 2316 -97 
L 728 3556 
Q 606 3838 556 3900 
Q 478 3997 364 4051 
Q 250 4106 56 4122 
L 56 4238 
L 1788 4238 
L 1788 4122 
Q 1494 4094 1406 4022 
Q 1319 3950 1319 3838 
Q 1319 3681 1463 3350 
L 2541 866 
L 3541 3319 
Q 3688 3681 3688 3822 
Q 3688 3913 3597 3995 
Q 3506 4078 3291 4113 
Q 3275 4116 3238 4122 
L 3238 4238 
L 4544 4238 
z
" transform="scale(0.015625)"/>
        <path id="TimesNewRomanPSMT-61" d="M 1822 413 
Q 1381 72 1269 19 
Q 1100 -59 909 -59 
Q 613 -59 420 144 
Q 228 347 228 678 
Q 228 888 322 1041 
Q 450 1253 767 1440 
Q 1084 1628 1822 1897 
L 1822 2009 
Q 1822 2438 1686 2597 
Q 1550 2756 1291 2756 
Q 1094 2756 978 2650 
Q 859 2544 859 2406 
L 866 2225 
Q 866 2081 792 2003 
Q 719 1925 600 1925 
Q 484 1925 411 2006 
Q 338 2088 338 2228 
Q 338 2497 613 2722 
Q 888 2947 1384 2947 
Q 1766 2947 2009 2819 
Q 2194 2722 2281 2516 
Q 2338 2381 2338 1966 
L 2338 994 
Q 2338 584 2353 492 
Q 2369 400 2405 369 
Q 2441 338 2488 338 
Q 2538 338 2575 359 
Q 2641 400 2828 588 
L 2828 413 
Q 2478 -56 2159 -56 
Q 2006 -56 1915 50 
Q 1825 156 1822 413 
z
M 1822 616 
L 1822 1706 
Q 1350 1519 1213 1441 
Q 966 1303 859 1153 
Q 753 1003 753 825 
Q 753 600 887 451 
Q 1022 303 1197 303 
Q 1434 303 1822 616 
z
" transform="scale(0.015625)"/>
        <path id="TimesNewRomanPSMT-69" d="M 928 4444 
Q 1059 4444 1151 4351 
Q 1244 4259 1244 4128 
Q 1244 3997 1151 3903 
Q 1059 3809 928 3809 
Q 797 3809 703 3903 
Q 609 3997 609 4128 
Q 609 4259 701 4351 
Q 794 4444 928 4444 
z
M 1188 2947 
L 1188 647 
Q 1188 378 1227 289 
Q 1266 200 1342 156 
Q 1419 113 1622 113 
L 1622 0 
L 231 0 
L 231 113 
Q 441 113 512 153 
Q 584 194 626 287 
Q 669 381 669 647 
L 669 1750 
Q 669 2216 641 2353 
Q 619 2453 572 2492 
Q 525 2531 444 2531 
Q 356 2531 231 2484 
L 188 2597 
L 1050 2947 
L 1188 2947 
z
" transform="scale(0.015625)"/>
        <path id="TimesNewRomanPSMT-64" d="M 2222 322 
Q 2013 103 1813 7 
Q 1613 -88 1381 -88 
Q 913 -88 563 304 
Q 213 697 213 1313 
Q 213 1928 600 2439 
Q 988 2950 1597 2950 
Q 1975 2950 2222 2709 
L 2222 3238 
Q 2222 3728 2198 3840 
Q 2175 3953 2125 3993 
Q 2075 4034 2000 4034 
Q 1919 4034 1784 3984 
L 1744 4094 
L 2597 4444 
L 2738 4444 
L 2738 1134 
Q 2738 631 2761 520 
Q 2784 409 2836 365 
Q 2888 322 2956 322 
Q 3041 322 3181 375 
L 3216 266 
L 2366 -88 
L 2222 -88 
L 2222 322 
z
M 2222 541 
L 2222 2016 
Q 2203 2228 2109 2403 
Q 2016 2578 1861 2667 
Q 1706 2756 1559 2756 
Q 1284 2756 1069 2509 
Q 784 2184 784 1559 
Q 784 928 1059 592 
Q 1334 256 1672 256 
Q 1956 256 2222 541 
z
" transform="scale(0.015625)"/>
        <path id="TimesNewRomanPSMT-74" d="M 1031 3803 
L 1031 2863 
L 1700 2863 
L 1700 2644 
L 1031 2644 
L 1031 788 
Q 1031 509 1111 412 
Q 1191 316 1316 316 
Q 1419 316 1516 380 
Q 1613 444 1666 569 
L 1788 569 
Q 1678 263 1478 108 
Q 1278 -47 1066 -47 
Q 922 -47 784 33 
Q 647 113 581 261 
Q 516 409 516 719 
L 516 2644 
L 63 2644 
L 63 2747 
Q 234 2816 414 2980 
Q 594 3144 734 3369 
Q 806 3488 934 3803 
L 1031 3803 
z
" transform="scale(0.015625)"/>
        <path id="TimesNewRomanPSMT-65" d="M 681 1784 
Q 678 1147 991 784 
Q 1303 422 1725 422 
Q 2006 422 2214 576 
Q 2422 731 2563 1106 
L 2659 1044 
Q 2594 616 2278 264 
Q 1963 -88 1488 -88 
Q 972 -88 605 314 
Q 238 716 238 1394 
Q 238 2128 614 2539 
Q 991 2950 1559 2950 
Q 2041 2950 2350 2633 
Q 2659 2316 2659 1784 
L 681 1784 
z
M 681 1966 
L 2006 1966 
Q 1991 2241 1941 2353 
Q 1863 2528 1708 2628 
Q 1553 2728 1384 2728 
Q 1125 2728 920 2526 
Q 716 2325 681 1966 
z
" transform="scale(0.015625)"/>
       </defs>
       <use xlink:href="#TimesNewRomanPSMT-56"/>
       <use xlink:href="#TimesNewRomanPSMT-61" x="61.091797"/>
       <use xlink:href="#TimesNewRomanPSMT-6c" x="105.476562"/>
       <use xlink:href="#TimesNewRomanPSMT-69" x="133.259766"/>
       <use xlink:href="#TimesNewRomanPSMT-64" x="161.042969"/>
       <use xlink:href="#TimesNewRomanPSMT-61" x="211.042969"/>
       <use xlink:href="#TimesNewRomanPSMT-74" x="255.427734"/>
       <use xlink:href="#TimesNewRomanPSMT-65" x="283.210938"/>
      </g>
     </g>
    </g>
   </g>
   <g id="matplotlib.axis_2">
    <g id="ytick_1">
     <g id="line2d_3">
      <path d="M 28.656188 114.552 
L 227.646187 114.552 
" clip-path="url(#pac008ac15c)" style="fill: none; stroke: #d1d5db; stroke-opacity: 0.85; stroke-width: 0.55; stroke-linecap: square"/>
     </g>
     <g id="line2d_4">
      <defs>
       <path id="m99e2686637" d="M 0 0 
L -4.5 0 
" style="stroke: #000000; stroke-width: 1.4"/>
      </defs>
      <g>
       <use xlink:href="#m99e2686637" x="28.656188" y="114.552" style="stroke: #000000; stroke-width: 1.4"/>
      </g>
     </g>
     <g id="text_3">
      <!-- 0 -->
      <g transform="translate(16.506188 117.433656) scale(0.083 -0.083)">
       <defs>
        <path id="TimesNewRomanPSMT-30" d="M 231 2094 
Q 231 2819 450 3342 
Q 669 3866 1031 4122 
Q 1313 4325 1613 4325 
Q 2100 4325 2488 3828 
Q 2972 3213 2972 2159 
Q 2972 1422 2759 906 
Q 2547 391 2217 158 
Q 1888 -75 1581 -75 
Q 975 -75 572 641 
Q 231 1244 231 2094 
z
M 844 2016 
Q 844 1141 1059 588 
Q 1238 122 1591 122 
Q 1759 122 1940 273 
Q 2122 425 2216 781 
Q 2359 1319 2359 2297 
Q 2359 3022 2209 3506 
Q 2097 3866 1919 4016 
Q 1791 4119 1609 4119 
Q 1397 4119 1231 3928 
Q 1006 3669 925 3112 
Q 844 2556 844 2016 
z
" transform="scale(0.015625)"/>
       </defs>
       <use xlink:href="#TimesNewRomanPSMT-30"/>
      </g>
     </g>
    </g>
    <g id="ytick_2">
     <g id="line2d_5">
      <path d="M 28.656188 89.096 
L 227.646187 89.096 
" clip-path="url(#pac008ac15c)" style="fill: none; stroke: #d1d5db; stroke-opacity: 0.85; stroke-width: 0.55; stroke-linecap: square"/>
     </g>
     <g id="line2d_6">
      <g>
       <use xlink:href="#m99e2686637" x="28.656188" y="89.096" style="stroke: #000000; stroke-width: 1.4"/>
      </g>
     </g>
     <g id="text_4">
      <!-- 10 -->
      <g transform="translate(12.356188 91.977656) scale(0.083 -0.083)">
       <defs>
        <path id="TimesNewRomanPSMT-31" d="M 750 3822 
L 1781 4325 
L 1884 4325 
L 1884 747 
Q 1884 391 1914 303 
Q 1944 216 2037 169 
Q 2131 122 2419 116 
L 2419 0 
L 825 0 
L 825 116 
Q 1125 122 1212 167 
Q 1300 213 1334 289 
Q 1369 366 1369 747 
L 1369 3034 
Q 1369 3497 1338 3628 
Q 1316 3728 1258 3775 
Q 1200 3822 1119 3822 
Q 1003 3822 797 3725 
L 750 3822 
z
" transform="scale(0.015625)"/>
       </defs>
       <use xlink:href="#TimesNewRomanPSMT-31"/>
       <use xlink:href="#TimesNewRomanPSMT-30" x="50"/>
      </g>
     </g>
    </g>
    <g id="ytick_3">
     <g id="line2d_7">
      <path d="M 28.656188 63.64 
L 227.646187 63.64 
" clip-path="url(#pac008ac15c)" style="fill: none; stroke: #d1d5db; stroke-opacity: 0.85; stroke-width: 0.55; stroke-linecap: square"/>
     </g>
     <g id="line2d_8">
      <g>
       <use xlink:href="#m99e2686637" x="28.656188" y="63.64" style="stroke: #000000; stroke-width: 1.4"/>
      </g>
     </g>
     <g id="text_5">
      <!-- 20 -->
      <g transform="translate(12.356188 66.521656) scale(0.083 -0.083)">
       <defs>
        <path id="TimesNewRomanPSMT-32" d="M 2934 816 
L 2638 0 
L 138 0 
L 138 116 
Q 1241 1122 1691 1759 
Q 2141 2397 2141 2925 
Q 2141 3328 1894 3587 
Q 1647 3847 1303 3847 
Q 991 3847 742 3664 
Q 494 3481 375 3128 
L 259 3128 
Q 338 3706 661 4015 
Q 984 4325 1469 4325 
Q 1984 4325 2329 3994 
Q 2675 3663 2675 3213 
Q 2675 2891 2525 2569 
Q 2294 2063 1775 1497 
Q 997 647 803 472 
L 1909 472 
Q 2247 472 2383 497 
Q 2519 522 2628 598 
Q 2738 675 2819 816 
L 2934 816 
z
" transform="scale(0.015625)"/>
       </defs>
       <use xlink:href="#TimesNewRomanPSMT-32"/>
       <use xlink:href="#TimesNewRomanPSMT-30" x="50"/>
      </g>
     </g>
    </g>
    <g id="ytick_4">
     <g id="line2d_9">
      <path d="M 28.656188 38.184 
L 227.646187 38.184 
" clip-path="url(#pac008ac15c)" style="fill: none; stroke: #d1d5db; stroke-opacity: 0.85; stroke-width: 0.55; stroke-linecap: square"/>
     </g>
     <g id="line2d_10">
      <g>
       <use xlink:href="#m99e2686637" x="28.656188" y="38.184" style="stroke: #000000; stroke-width: 1.4"/>
      </g>
     </g>
     <g id="text_6">
      <!-- 30 -->
      <g transform="translate(12.356188 41.065656) scale(0.083 -0.083)">
       <defs>
        <path id="TimesNewRomanPSMT-33" d="M 325 3431 
Q 506 3859 782 4092 
Q 1059 4325 1472 4325 
Q 1981 4325 2253 3994 
Q 2459 3747 2459 3466 
Q 2459 3003 1878 2509 
Q 2269 2356 2469 2072 
Q 2669 1788 2669 1403 
Q 2669 853 2319 450 
Q 1863 -75 997 -75 
Q 569 -75 414 31 
Q 259 138 259 259 
Q 259 350 332 419 
Q 406 488 509 488 
Q 588 488 669 463 
Q 722 447 909 348 
Q 1097 250 1169 231 
Q 1284 197 1416 197 
Q 1734 197 1970 444 
Q 2206 691 2206 1028 
Q 2206 1275 2097 1509 
Q 2016 1684 1919 1775 
Q 1784 1900 1550 2001 
Q 1316 2103 1072 2103 
L 972 2103 
L 972 2197 
Q 1219 2228 1467 2375 
Q 1716 2522 1828 2728 
Q 1941 2934 1941 3181 
Q 1941 3503 1739 3701 
Q 1538 3900 1238 3900 
Q 753 3900 428 3381 
L 325 3431 
z
" transform="scale(0.015625)"/>
       </defs>
       <use xlink:href="#TimesNewRomanPSMT-33"/>
       <use xlink:href="#TimesNewRomanPSMT-30" x="50"/>
      </g>
     </g>
    </g>
    <g id="ytick_5">
     <g id="line2d_11">
      <path d="M 28.656188 12.728 
L 227.646187 12.728 
" clip-path="url(#pac008ac15c)" style="fill: none; stroke: #d1d5db; stroke-opacity: 0.85; stroke-width: 0.55; stroke-linecap: square"/>
     </g>
     <g id="line2d_12">
      <g>
       <use xlink:href="#m99e2686637" x="28.656188" y="12.728" style="stroke: #000000; stroke-width: 1.4"/>
      </g>
     </g>
     <g id="text_7">
      <!-- 40 -->
      <g transform="translate(12.356188 15.609656) scale(0.083 -0.083)">
       <defs>
        <path id="TimesNewRomanPSMT-34" d="M 2978 1563 
L 2978 1119 
L 2409 1119 
L 2409 0 
L 1894 0 
L 1894 1119 
L 100 1119 
L 100 1519 
L 2066 4325 
L 2409 4325 
L 2409 1563 
L 2978 1563 
z
M 1894 1563 
L 1894 3666 
L 406 1563 
L 1894 1563 
z
" transform="scale(0.015625)"/>
       </defs>
       <use xlink:href="#TimesNewRomanPSMT-34"/>
       <use xlink:href="#TimesNewRomanPSMT-30" x="50"/>
      </g>
     </g>
    </g>
    <g id="text_8">
     <!-- Rate (%) -->
     <g transform="translate(6.38825 73.751187) rotate(-90) scale(0.092 -0.092)">
      <defs>
       <path id="TimesNewRomanPSMT-52" d="M 4325 0 
L 3194 0 
L 1759 1981 
Q 1600 1975 1500 1975 
Q 1459 1975 1412 1976 
Q 1366 1978 1316 1981 
L 1316 750 
Q 1316 350 1403 253 
Q 1522 116 1759 116 
L 1925 116 
L 1925 0 
L 109 0 
L 109 116 
L 269 116 
Q 538 116 653 291 
Q 719 388 719 750 
L 719 3488 
Q 719 3888 631 3984 
Q 509 4122 269 4122 
L 109 4122 
L 109 4238 
L 1653 4238 
Q 2328 4238 2648 4139 
Q 2969 4041 3192 3777 
Q 3416 3513 3416 3147 
Q 3416 2756 3161 2468 
Q 2906 2181 2372 2063 
L 3247 847 
Q 3547 428 3762 290 
Q 3978 153 4325 116 
L 4325 0 
z
M 1316 2178 
Q 1375 2178 1419 2176 
Q 1463 2175 1491 2175 
Q 2097 2175 2405 2437 
Q 2713 2700 2713 3106 
Q 2713 3503 2464 3751 
Q 2216 4000 1806 4000 
Q 1625 4000 1316 3941 
L 1316 2178 
z
" transform="scale(0.015625)"/>
       <path id="TimesNewRomanPSMT-20" transform="scale(0.015625)"/>
       <path id="TimesNewRomanPSMT-28" d="M 1988 -1253 
L 1988 -1369 
Q 1516 -1131 1200 -813 
Q 750 -359 506 256 
Q 263 872 263 1534 
Q 263 2503 741 3301 
Q 1219 4100 1988 4444 
L 1988 4313 
Q 1603 4100 1356 3731 
Q 1109 3363 987 2797 
Q 866 2231 866 1616 
Q 866 947 969 400 
Q 1050 -31 1165 -292 
Q 1281 -553 1476 -793 
Q 1672 -1034 1988 -1253 
z
" transform="scale(0.015625)"/>
       <path id="TimesNewRomanPSMT-25" d="M 4350 4334 
L 1263 -175 
L 984 -175 
L 4072 4334 
L 4350 4334 
z
M 1138 4334 
Q 1559 4334 1792 3984 
Q 2025 3634 2025 3181 
Q 2025 2638 1762 2341 
Q 1500 2044 1131 2044 
Q 884 2044 678 2180 
Q 472 2316 348 2584 
Q 225 2853 225 3181 
Q 225 3509 350 3786 
Q 475 4063 692 4198 
Q 909 4334 1138 4334 
z
M 1128 4159 
Q 969 4159 845 3971 
Q 722 3784 722 3184 
Q 722 2750 791 2522 
Q 844 2350 956 2256 
Q 1022 2200 1119 2200 
Q 1269 2200 1375 2363 
Q 1531 2603 1531 3166 
Q 1531 3759 1378 4000 
Q 1278 4159 1128 4159 
z
M 4206 2103 
Q 4428 2103 4648 1962 
Q 4869 1822 4989 1553 
Q 5109 1284 5109 963 
Q 5109 409 4843 117 
Q 4578 -175 4216 -175 
Q 3988 -175 3773 -34 
Q 3559 106 3436 367 
Q 3313 628 3313 963 
Q 3313 1291 3436 1562 
Q 3559 1834 3773 1968 
Q 3988 2103 4206 2103 
z
M 4209 1938 
Q 4059 1938 3950 1769 
Q 3809 1550 3809 941 
Q 3809 381 3953 159 
Q 4059 0 4209 0 
Q 4353 0 4466 172 
Q 4616 400 4616 956 
Q 4616 1544 4466 1778 
Q 4363 1938 4209 1938 
z
" transform="scale(0.015625)"/>
       <path id="TimesNewRomanPSMT-29" d="M 144 4313 
L 144 4444 
Q 619 4209 934 3891 
Q 1381 3434 1625 2820 
Q 1869 2206 1869 1541 
Q 1869 572 1392 -226 
Q 916 -1025 144 -1369 
L 144 -1253 
Q 528 -1038 776 -670 
Q 1025 -303 1145 264 
Q 1266 831 1266 1447 
Q 1266 2113 1163 2663 
Q 1084 3094 967 3353 
Q 850 3613 656 3853 
Q 463 4094 144 4313 
z
" transform="scale(0.015625)"/>
      </defs>
      <use xlink:href="#TimesNewRomanPSMT-52"/>
      <use xlink:href="#TimesNewRomanPSMT-61" x="66.699219"/>
      <use xlink:href="#TimesNewRomanPSMT-74" x="111.083984"/>
      <use xlink:href="#TimesNewRomanPSMT-65" x="138.867188"/>
      <use xlink:href="#TimesNewRomanPSMT-20" x="183.251953"/>
      <use xlink:href="#TimesNewRomanPSMT-28" x="208.251953"/>
      <use xlink:href="#TimesNewRomanPSMT-25" x="241.552734"/>
      <use xlink:href="#TimesNewRomanPSMT-29" x="324.853516"/>
     </g>
    </g>
   </g>
   <g id="patch_3">
    <path d="M 54.240616 114.552 
L 80.772616 114.552 
L 80.772616 13.669872 
L 54.240616 13.669872 
z
" clip-path="url(#pac008ac15c)" style="fill: url(#hc2592967e0); stroke: #000000; stroke-width: 1.35; stroke-linejoin: miter"/>
   </g>
   <g id="patch_4">
    <path d="M 148.997759 114.552 
L 175.529759 114.552 
L 175.529759 98.336528 
L 148.997759 98.336528 
z
" clip-path="url(#pac008ac15c)" style="fill: url(#hc2592967e0); stroke: #000000; stroke-width: 1.35; stroke-linejoin: miter"/>
   </g>
   <g id="patch_5">
    <path d="M 80.772616 114.552 
L 107.304616 114.552 
L 107.304616 81.611936 
L 80.772616 81.611936 
z
" clip-path="url(#pac008ac15c)" style="fill: url(#h079a501e8f); stroke: #000000; stroke-width: 1.35; stroke-linejoin: miter"/>
   </g>
   <g id="patch_6">
    <path d="M 175.529759 114.552 
L 202.061759 114.552 
L 202.061759 111.930032 
L 175.529759 111.930032 
z
" clip-path="url(#pac008ac15c)" style="fill: url(#h079a501e8f); stroke: #000000; stroke-width: 1.35; stroke-linejoin: miter"/>
   </g>
   <g id="patch_7">
    <path d="M 28.656188 114.552 
L 28.656188 -0 
" style="fill: none; stroke: #000000; stroke-width: 1.4; stroke-linejoin: miter; stroke-linecap: square"/>
   </g>
   <g id="patch_8">
    <path d="M 227.646187 114.552 
L 227.646187 -0 
" style="fill: none; stroke: #000000; stroke-width: 1.4; stroke-linejoin: miter; stroke-linecap: square"/>
   </g>
   <g id="patch_9">
    <path d="M 28.656188 114.552 
L 227.646188 114.552 
" style="fill: none; stroke: #000000; stroke-width: 1.4; stroke-linejoin: miter; stroke-linecap: square"/>
   </g>
   <g id="patch_10">
    <path d="M 28.656188 0 
L 227.646188 0 
" style="fill: none; stroke: #000000; stroke-width: 1.4; stroke-linejoin: miter; stroke-linecap: square"/>
   </g>
   <g id="text_9">
    <!-- 39.6 -->
    <g transform="translate(61.031616 9.795926) scale(0.074 -0.074)">
     <defs>
      <path id="TimesNewRomanPSMT-39" d="M 338 -88 
L 338 28 
Q 744 34 1094 217 
Q 1444 400 1770 856 
Q 2097 1313 2225 1859 
Q 1734 1544 1338 1544 
Q 891 1544 572 1889 
Q 253 2234 253 2806 
Q 253 3363 572 3797 
Q 956 4325 1575 4325 
Q 2097 4325 2469 3894 
Q 2925 3359 2925 2575 
Q 2925 1869 2578 1258 
Q 2231 647 1613 244 
Q 1109 -88 516 -88 
L 338 -88 
z
M 2275 2091 
Q 2331 2497 2331 2741 
Q 2331 3044 2228 3395 
Q 2125 3747 1936 3934 
Q 1747 4122 1506 4122 
Q 1228 4122 1018 3872 
Q 809 3622 809 3128 
Q 809 2469 1088 2097 
Q 1291 1828 1588 1828 
Q 1731 1828 1928 1897 
Q 2125 1966 2275 2091 
z
" transform="scale(0.015625)"/>
      <path id="TimesNewRomanPSMT-2e" d="M 800 606 
Q 947 606 1047 504 
Q 1147 403 1147 259 
Q 1147 116 1045 14 
Q 944 -88 800 -88 
Q 656 -88 554 14 
Q 453 116 453 259 
Q 453 406 554 506 
Q 656 606 800 606 
z
" transform="scale(0.015625)"/>
      <path id="TimesNewRomanPSMT-36" d="M 2869 4325 
L 2869 4209 
Q 2456 4169 2195 4045 
Q 1934 3922 1679 3669 
Q 1425 3416 1258 3105 
Q 1091 2794 978 2366 
Q 1428 2675 1881 2675 
Q 2316 2675 2634 2325 
Q 2953 1975 2953 1425 
Q 2953 894 2631 456 
Q 2244 -75 1606 -75 
Q 1172 -75 869 213 
Q 275 772 275 1663 
Q 275 2231 503 2743 
Q 731 3256 1154 3653 
Q 1578 4050 1965 4187 
Q 2353 4325 2688 4325 
L 2869 4325 
z
M 925 2138 
Q 869 1716 869 1456 
Q 869 1156 980 804 
Q 1091 453 1309 247 
Q 1469 100 1697 100 
Q 1969 100 2183 356 
Q 2397 613 2397 1088 
Q 2397 1622 2184 2012 
Q 1972 2403 1581 2403 
Q 1463 2403 1327 2353 
Q 1191 2303 925 2138 
z
" transform="scale(0.015625)"/>
     </defs>
     <use xlink:href="#TimesNewRomanPSMT-33"/>
     <use xlink:href="#TimesNewRomanPSMT-39" x="50"/>
     <use xlink:href="#TimesNewRomanPSMT-2e" x="100"/>
     <use xlink:href="#TimesNewRomanPSMT-36" x="125"/>
    </g>
   </g>
   <g id="text_10">
    <!-- 6.4 -->
    <g transform="translate(157.638759 94.462582) scale(0.074 -0.074)">
     <use xlink:href="#TimesNewRomanPSMT-36"/>
     <use xlink:href="#TimesNewRomanPSMT-2e" x="50"/>
     <use xlink:href="#TimesNewRomanPSMT-34" x="75"/>
    </g>
   </g>
   <g id="text_11">
    <!-- 12.9 -->
    <g transform="translate(87.563616 77.73799) scale(0.074 -0.074)">
     <use xlink:href="#TimesNewRomanPSMT-31"/>
     <use xlink:href="#TimesNewRomanPSMT-32" x="50"/>
     <use xlink:href="#TimesNewRomanPSMT-2e" x="100"/>
     <use xlink:href="#TimesNewRomanPSMT-39" x="125"/>
    </g>
   </g>
   <g id="text_12">
    <!-- 1.0 -->
    <g transform="translate(184.170759 108.056086) scale(0.074 -0.074)">
     <use xlink:href="#TimesNewRomanPSMT-31"/>
     <use xlink:href="#TimesNewRomanPSMT-2e" x="50"/>
     <use xlink:href="#TimesNewRomanPSMT-30" x="75"/>
    </g>
   </g>
   <g id="text_13">
    <!-- 3.1x -->
    <g transform="translate(46.660045 6.906739) scale(0.081 -0.081)">
     <defs>
      <path id="TimesNewRomanPS-BoldMT-33" d="M 947 2125 
L 947 2234 
Q 1303 2338 1440 2427 
Q 1578 2516 1678 2698 
Q 1778 2881 1778 3069 
Q 1778 3328 1589 3514 
Q 1400 3700 1119 3700 
Q 681 3700 375 3238 
L 259 3278 
Q 484 3800 836 4062 
Q 1188 4325 1619 4325 
Q 2059 4325 2345 4056 
Q 2631 3788 2631 3428 
Q 2631 3194 2498 2976 
Q 2366 2759 2081 2594 
Q 2447 2416 2639 2155 
Q 2831 1894 2831 1500 
Q 2831 838 2351 373 
Q 1872 -91 1066 -91 
Q 528 -91 281 88 
Q 103 213 103 409 
Q 103 553 206 654 
Q 309 756 444 756 
Q 547 756 638 713 
Q 688 688 992 439 
Q 1297 191 1563 191 
Q 1794 191 1959 373 
Q 2125 556 2125 838 
Q 2125 1266 1825 1627 
Q 1525 1988 947 2125 
z
" transform="scale(0.015625)"/>
      <path id="TimesNewRomanPS-BoldMT-2e" d="M 800 963 
Q 1019 963 1170 809 
Q 1322 656 1322 441 
Q 1322 225 1169 73 
Q 1016 -78 800 -78 
Q 584 -78 432 73 
Q 281 225 281 441 
Q 281 656 432 809 
Q 584 963 800 963 
z
" transform="scale(0.015625)"/>
      <path id="TimesNewRomanPS-BoldMT-31" d="M 2084 4325 
L 2084 859 
Q 2084 469 2118 361 
Q 2153 253 2262 184 
Q 2372 116 2613 116 
L 2709 116 
L 2709 0 
L 478 0 
L 478 116 
L 591 116 
Q 863 116 978 178 
Q 1094 241 1134 350 
Q 1175 459 1175 859 
L 1175 3056 
Q 1175 3350 1147 3423 
Q 1119 3497 1042 3548 
Q 966 3600 866 3600 
Q 706 3600 478 3500 
L 422 3613 
L 1981 4325 
L 2084 4325 
z
" transform="scale(0.015625)"/>
      <path id="TimesNewRomanPS-BoldMT-78" d="M 1944 1791 
L 2450 828 
Q 2713 325 2866 191 
Q 2950 119 3097 113 
L 3097 0 
L 1469 0 
L 1469 113 
Q 1659 128 1704 162 
Q 1750 197 1750 256 
Q 1750 344 1650 531 
L 1397 1006 
L 1181 691 
Q 1034 475 1016 434 
Q 991 375 991 328 
Q 991 256 1020 207 
Q 1050 159 1101 136 
Q 1153 113 1291 113 
L 1291 0 
L 147 0 
L 147 113 
Q 359 113 536 230 
Q 713 347 1050 844 
L 1291 1200 
L 788 2131 
Q 541 2588 419 2691 
Q 297 2794 147 2806 
L 147 2922 
L 1766 2922 
L 1766 2806 
L 1681 2803 
L 1519 2747 
Q 1494 2725 1494 2675 
Q 1494 2628 1509 2578 
Q 1519 2556 1597 2409 
L 1825 1984 
L 1944 2153 
Q 2194 2497 2194 2634 
Q 2194 2700 2139 2745 
Q 2084 2791 1944 2806 
L 1944 2922 
L 2978 2922 
L 2978 2806 
Q 2788 2800 2622 2689 
Q 2456 2578 2250 2259 
L 1944 1791 
z
" transform="scale(0.015625)"/>
     </defs>
     <use xlink:href="#TimesNewRomanPS-BoldMT-33"/>
     <use xlink:href="#TimesNewRomanPS-BoldMT-2e" x="50"/>
     <use xlink:href="#TimesNewRomanPS-BoldMT-31" x="75"/>
     <use xlink:href="#TimesNewRomanPS-BoldMT-78" x="125"/>
    </g>
   </g>
   <g id="text_14">
    <!-- 6.2x -->
    <g transform="translate(168.442259 85.820339) scale(0.081 -0.081)">
     <defs>
      <path id="TimesNewRomanPS-BoldMT-36" d="M 3006 4325 
L 3006 4238 
Q 2441 4094 2098 3867 
Q 1756 3641 1557 3317 
Q 1359 2994 1250 2516 
Q 1388 2609 1478 2638 
Q 1681 2700 1888 2700 
Q 2363 2700 2680 2354 
Q 2997 2009 2997 1413 
Q 2997 994 2825 644 
Q 2653 294 2337 103 
Q 2022 -88 1663 -88 
Q 1272 -88 940 126 
Q 609 341 423 753 
Q 238 1166 238 1650 
Q 238 2363 580 2977 
Q 922 3591 1551 3955 
Q 2181 4319 3006 4325 
z
M 1209 2263 
Q 1184 1831 1184 1631 
Q 1184 1200 1267 797 
Q 1350 394 1494 231 
Q 1597 116 1738 116 
Q 1881 116 1993 283 
Q 2106 450 2106 963 
Q 2106 1825 1897 2153 
Q 1763 2366 1534 2366 
Q 1409 2366 1209 2263 
z
" transform="scale(0.015625)"/>
      <path id="TimesNewRomanPS-BoldMT-32" d="M 2650 0 
L 156 0 
L 156 69 
Q 1303 1434 1548 1906 
Q 1794 2378 1794 2828 
Q 1794 3156 1591 3373 
Q 1388 3591 1094 3591 
Q 613 3591 347 3109 
L 231 3150 
Q 400 3750 744 4037 
Q 1088 4325 1538 4325 
Q 1859 4325 2125 4175 
Q 2391 4025 2541 3764 
Q 2691 3503 2691 3275 
Q 2691 2859 2459 2431 
Q 2144 1853 1081 819 
L 1997 819 
Q 2334 819 2436 847 
Q 2538 875 2603 942 
Q 2669 1009 2775 1225 
L 2888 1225 
L 2650 0 
z
" transform="scale(0.015625)"/>
     </defs>
     <use xlink:href="#TimesNewRomanPS-BoldMT-36"/>
     <use xlink:href="#TimesNewRomanPS-BoldMT-2e" x="50"/>
     <use xlink:href="#TimesNewRomanPS-BoldMT-32" x="75"/>
     <use xlink:href="#TimesNewRomanPS-BoldMT-78" x="125"/>
    </g>
   </g>
   <g id="legend_1">
    <g id="patch_11">
     <path d="M 177.111563 23.049875 
L 222.886188 23.049875 
Q 224.246188 23.049875 224.246188 21.689875 
L 224.246188 4.76 
Q 224.246188 3.4 222.886188 3.4 
L 177.111563 3.4 
Q 175.751563 3.4 175.751563 4.76 
L 175.751563 21.689875 
Q 175.751563 23.049875 177.111563 23.049875 
z
" style="fill: #ffffff; stroke: #000000; stroke-width: 1.1; stroke-linejoin: miter"/>
    </g>
    <g id="patch_12">
     <path d="M 177.655563 10.064 
L 188.195562 10.064 
L 188.195562 5.304 
L 177.655563 5.304 
z
" style="fill: url(#hc2592967e0); stroke: #000000; stroke-width: 1.35; stroke-linejoin: miter"/>
    </g>
    <g id="text_15">
     <!-- CARE -->
     <g transform="translate(193.635562 10.064) scale(0.068 -0.068)">
      <defs>
       <path id="TimesNewRomanPSMT-43" d="M 3853 4334 
L 3950 2894 
L 3853 2894 
Q 3659 3541 3300 3825 
Q 2941 4109 2438 4109 
Q 2016 4109 1675 3895 
Q 1334 3681 1139 3212 
Q 944 2744 944 2047 
Q 944 1472 1128 1050 
Q 1313 628 1683 403 
Q 2053 178 2528 178 
Q 2941 178 3256 354 
Q 3572 531 3950 1056 
L 4047 994 
Q 3728 428 3303 165 
Q 2878 -97 2294 -97 
Q 1241 -97 663 684 
Q 231 1266 231 2053 
Q 231 2688 515 3219 
Q 800 3750 1298 4042 
Q 1797 4334 2388 4334 
Q 2847 4334 3294 4109 
Q 3425 4041 3481 4041 
Q 3566 4041 3628 4100 
Q 3709 4184 3744 4334 
L 3853 4334 
z
" transform="scale(0.015625)"/>
       <path id="TimesNewRomanPSMT-45" d="M 1338 4006 
L 1338 2331 
L 2269 2331 
Q 2631 2331 2753 2441 
Q 2916 2584 2934 2947 
L 3050 2947 
L 3050 1472 
L 2934 1472 
Q 2891 1781 2847 1869 
Q 2791 1978 2662 2040 
Q 2534 2103 2269 2103 
L 1338 2103 
L 1338 706 
Q 1338 425 1363 364 
Q 1388 303 1450 267 
Q 1513 231 1688 231 
L 2406 231 
Q 2766 231 2928 281 
Q 3091 331 3241 478 
Q 3434 672 3638 1063 
L 3763 1063 
L 3397 0 
L 131 0 
L 131 116 
L 281 116 
Q 431 116 566 188 
Q 666 238 702 338 
Q 738 438 738 747 
L 738 3500 
Q 738 3903 656 3997 
Q 544 4122 281 4122 
L 131 4122 
L 131 4238 
L 3397 4238 
L 3444 3309 
L 3322 3309 
Q 3256 3644 3176 3769 
Q 3097 3894 2941 3959 
Q 2816 4006 2500 4006 
L 1338 4006 
z
" transform="scale(0.015625)"/>
      </defs>
      <use xlink:href="#TimesNewRomanPSMT-43"/>
      <use xlink:href="#TimesNewRomanPSMT-41" x="66.699219"/>
      <use xlink:href="#TimesNewRomanPSMT-52" x="138.916016"/>
      <use xlink:href="#TimesNewRomanPSMT-45" x="205.615234"/>
     </g>
    </g>
    <g id="patch_13">
     <path d="M 177.655563 19.678562 
L 188.195562 19.678562 
L 188.195562 14.918562 
L 177.655563 14.918562 
z
" style="fill: url(#h079a501e8f); stroke: #000000; stroke-width: 1.35; stroke-linejoin: miter"/>
    </g>
    <g id="text_16">
     <!-- LLM-only -->
     <g transform="translate(193.635562 19.678562) scale(0.068 -0.068)">
      <defs>
       <path id="TimesNewRomanPSMT-4c" d="M 3669 1172 
L 3772 1150 
L 3409 0 
L 128 0 
L 128 116 
L 288 116 
Q 556 116 672 291 
Q 738 391 738 753 
L 738 3488 
Q 738 3884 650 3984 
Q 528 4122 288 4122 
L 128 4122 
L 128 4238 
L 2047 4238 
L 2047 4122 
Q 1709 4125 1573 4059 
Q 1438 3994 1388 3894 
Q 1338 3794 1338 3416 
L 1338 753 
Q 1338 494 1388 397 
Q 1425 331 1503 300 
Q 1581 269 1991 269 
L 2300 269 
Q 2788 269 2984 341 
Q 3181 413 3343 595 
Q 3506 778 3669 1172 
z
" transform="scale(0.015625)"/>
       <path id="TimesNewRomanPSMT-4d" d="M 2619 0 
L 981 3566 
L 981 734 
Q 981 344 1066 247 
Q 1181 116 1431 116 
L 1581 116 
L 1581 0 
L 106 0 
L 106 116 
L 256 116 
Q 525 116 638 278 
Q 706 378 706 734 
L 706 3503 
Q 706 3784 644 3909 
Q 600 4000 483 4061 
Q 366 4122 106 4122 
L 106 4238 
L 1306 4238 
L 2844 922 
L 4356 4238 
L 5556 4238 
L 5556 4122 
L 5409 4122 
Q 5138 4122 5025 3959 
Q 4956 3859 4956 3503 
L 4956 734 
Q 4956 344 5044 247 
Q 5159 116 5409 116 
L 5556 116 
L 5556 0 
L 3756 0 
L 3756 116 
L 3906 116 
Q 4178 116 4288 278 
Q 4356 378 4356 734 
L 4356 3566 
L 2722 0 
L 2619 0 
z
" transform="scale(0.015625)"/>
       <path id="TimesNewRomanPSMT-2d" d="M 259 1672 
L 1875 1672 
L 1875 1200 
L 259 1200 
L 259 1672 
z
" transform="scale(0.015625)"/>
       <path id="TimesNewRomanPSMT-6f" d="M 1600 2947 
Q 2250 2947 2644 2453 
Q 2978 2031 2978 1484 
Q 2978 1100 2793 706 
Q 2609 313 2286 112 
Q 1963 -88 1566 -88 
Q 919 -88 538 428 
Q 216 863 216 1403 
Q 216 1797 411 2186 
Q 606 2575 925 2761 
Q 1244 2947 1600 2947 
z
M 1503 2744 
Q 1338 2744 1170 2645 
Q 1003 2547 900 2300 
Q 797 2053 797 1666 
Q 797 1041 1045 587 
Q 1294 134 1700 134 
Q 2003 134 2200 384 
Q 2397 634 2397 1244 
Q 2397 2006 2069 2444 
Q 1847 2744 1503 2744 
z
" transform="scale(0.015625)"/>
       <path id="TimesNewRomanPSMT-6e" d="M 1034 2341 
Q 1538 2947 1994 2947 
Q 2228 2947 2397 2830 
Q 2566 2713 2666 2444 
Q 2734 2256 2734 1869 
L 2734 647 
Q 2734 375 2778 278 
Q 2813 200 2889 156 
Q 2966 113 3172 113 
L 3172 0 
L 1756 0 
L 1756 113 
L 1816 113 
Q 2016 113 2095 173 
Q 2175 234 2206 353 
Q 2219 400 2219 647 
L 2219 1819 
Q 2219 2209 2117 2386 
Q 2016 2563 1775 2563 
Q 1403 2563 1034 2156 
L 1034 647 
Q 1034 356 1069 288 
Q 1113 197 1189 155 
Q 1266 113 1500 113 
L 1500 0 
L 84 0 
L 84 113 
L 147 113 
Q 366 113 442 223 
Q 519 334 519 647 
L 519 1709 
Q 519 2225 495 2337 
Q 472 2450 423 2490 
Q 375 2531 294 2531 
Q 206 2531 84 2484 
L 38 2597 
L 900 2947 
L 1034 2947 
L 1034 2341 
z
" transform="scale(0.015625)"/>
      </defs>
      <use xlink:href="#TimesNewRomanPSMT-4c"/>
      <use xlink:href="#TimesNewRomanPSMT-4c" x="61.083984"/>
      <use xlink:href="#TimesNewRomanPSMT-4d" x="122.167969"/>
      <use xlink:href="#TimesNewRomanPSMT-2d" x="211.083984"/>
      <use xlink:href="#TimesNewRomanPSMT-6f" x="244.384766"/>
      <use xlink:href="#TimesNewRomanPSMT-6e" x="294.384766"/>
      <use xlink:href="#TimesNewRomanPSMT-6c" x="344.384766"/>
      <use xlink:href="#TimesNewRomanPSMT-79" x="372.167969"/>
     </g>
    </g>
   </g>
  </g>
 </g>
 <defs>
  <clipPath id="pac008ac15c">
   <rect x="28.656188" y="0" width="198.99" height="114.552"/>
  </clipPath>
 </defs>
 <defs>
  <pattern id="hc2592967e0" patternUnits="userSpaceOnUse" x="0" y="0" width="72" height="72">
   <rect x="0" y="0" width="73" height="73" fill="#d73027"/>
   <path d="M -36 36 
L 36 -36 
M -30 42 
L 42 -30 
M -24 48 
L 48 -24 
M -18 54 
L 54 -18 
M -12 60 
L 60 -12 
M -6 66 
L 66 -6 
M 0 72 
L 72 0 
M 6 78 
L 78 6 
M 12 84 
L 84 12 
M 18 90 
L 90 18 
M 24 96 
L 96 24 
M 30 102 
L 102 30 
M 36 108 
L 108 36 
" style="fill: #000000; stroke: #000000; stroke-width: 1.0; stroke-linecap: butt; stroke-linejoin: miter"/>
  </pattern>
  <pattern id="h079a501e8f" patternUnits="userSpaceOnUse" x="0" y="0" width="72" height="72">
   <rect x="0" y="0" width="73" height="73" fill="#4575b4"/>
   <path d="M -36 36 
L 36 108 
M -30 30 
L 42 102 
M -24 24 
L 48 96 
M -18 18 
L 54 90 
M -12 12 
L 60 84 
M -6 6 
L 66 78 
M 0 0 
L 72 72 
M 6 -6 
L 78 66 
M 12 -12 
L 84 60 
M 18 -18 
L 90 54 
M 24 -24 
L 96 48 
M 30 -30 
L 102 42 
M 36 -36 
L 108 36 
" style="fill: #000000; stroke: #000000; stroke-width: 1.0; stroke-linecap: butt; stroke-linejoin: miter"/>
  </pattern>
 </defs>
</svg>
